<svg width="54" height="52" viewBox="0 0 54 52" fill="none" xmlns="http://www.w3.org/2000/svg">
<path d="M29.0942 22.7737C28.8406 22.5309 28.5415 22.3406 28.2142 22.2137C27.565 21.947 26.8367 21.947 26.1875 22.2137C25.8602 22.3406 25.5611 22.5309 25.3075 22.7737L19.9742 28.107C19.472 28.6092 19.1899 29.2902 19.1899 30.0004C19.1899 30.7105 19.472 31.3916 19.9742 31.8937C20.4763 32.3959 21.1574 32.678 21.8675 32.678C22.5777 32.678 23.2587 32.3959 23.7608 31.8937L24.5342 31.0937V38.0004C24.5342 38.7076 24.8151 39.3859 25.3152 39.886C25.8153 40.3861 26.4936 40.667 27.2008 40.667C27.9081 40.667 28.5864 40.3861 29.0865 39.886C29.5866 39.3859 29.8675 38.7076 29.8675 38.0004V31.0937L30.6408 31.8937C30.8887 32.1437 31.1837 32.342 31.5086 32.4774C31.8336 32.6128 32.1821 32.6825 32.5342 32.6825C32.8862 32.6825 33.2348 32.6128 33.5597 32.4774C33.8847 32.342 34.1796 32.1437 34.4275 31.8937C34.6775 31.6458 34.8758 31.3509 35.0112 31.0259C35.1466 30.701 35.2163 30.3524 35.2163 30.0004C35.2163 29.6483 35.1466 29.2998 35.0112 28.9748C34.8758 28.6499 34.6775 28.3549 34.4275 28.107L29.0942 22.7737ZM45.8675 8.66705H29.1208L28.2675 6.00038C27.7143 4.43567 26.6882 3.08173 25.3312 2.12615C23.9743 1.17057 22.3538 0.660654 20.6942 0.667052H8.53418C6.41245 0.667052 4.37762 1.50991 2.87733 3.0102C1.37703 4.51049 0.53418 6.54532 0.53418 8.66705V43.3337C0.53418 45.4554 1.37703 47.4903 2.87733 48.9906C4.37762 50.4909 6.41245 51.3337 8.53418 51.3337H45.8675C47.9892 51.3337 50.0241 50.4909 51.5244 48.9906C53.0247 47.4903 53.8675 45.4554 53.8675 43.3337V16.6671C53.8675 14.5453 53.0247 12.5105 51.5244 11.0102C50.0241 9.50991 47.9892 8.66705 45.8675 8.66705ZM48.5342 43.3337C48.5342 44.041 48.2532 44.7192 47.7531 45.2193C47.253 45.7194 46.5748 46.0004 45.8675 46.0004H8.53418C7.82694 46.0004 7.14866 45.7194 6.64856 45.2193C6.14847 44.7192 5.86751 44.041 5.86751 43.3337V8.66705C5.86751 7.95981 6.14847 7.28153 6.64856 6.78143C7.14866 6.28134 7.82694 6.00038 8.53418 6.00038H20.6942C21.2532 5.99894 21.7986 6.17324 22.2532 6.49863C22.7078 6.82402 23.0486 7.28406 23.2275 7.81372L24.6675 12.1871C24.8464 12.7167 25.1872 13.1767 25.6418 13.5021C26.0964 13.8275 26.6418 14.0018 27.2008 14.0004H45.8675C46.5748 14.0004 47.253 14.2813 47.7531 14.7814C48.2532 15.2815 48.5342 15.9598 48.5342 16.6671V43.3337Z" fill="#8B8B8B"/>
</svg>
