<svg width="301" height="135" viewBox="0 0 301 135" fill="none" xmlns="http://www.w3.org/2000/svg">
<path d="M152.094 28.7737C151.841 28.5309 151.542 28.3406 151.214 28.2137C150.565 27.947 149.837 27.947 149.188 28.2137C148.86 28.3406 148.561 28.5309 148.308 28.7737L142.974 34.107C142.472 34.6092 142.19 35.2902 142.19 36.0004C142.19 36.7105 142.472 37.3916 142.974 37.8937C143.476 38.3959 144.157 38.678 144.868 38.678C145.578 38.678 146.259 38.3959 146.761 37.8937L147.534 37.0937V44.0004C147.534 44.7076 147.815 45.3859 148.315 45.886C148.815 46.3861 149.494 46.667 150.201 46.667C150.908 46.667 151.586 46.3861 152.086 45.886C152.587 45.3859 152.868 44.7076 152.868 44.0004V37.0937L153.641 37.8937C153.889 38.1437 154.184 38.342 154.509 38.4774C154.834 38.6128 155.182 38.6825 155.534 38.6825C155.886 38.6825 156.235 38.6128 156.56 38.4774C156.885 38.342 157.18 38.1437 157.428 37.8937C157.677 37.6458 157.876 37.3509 158.011 37.0259C158.147 36.701 158.216 36.3524 158.216 36.0004C158.216 35.6484 158.147 35.2998 158.011 34.9748C157.876 34.6499 157.677 34.355 157.428 34.107L152.094 28.7737ZM168.868 14.6671H152.121L151.268 12.0004C150.714 10.4357 149.688 9.08173 148.331 8.12615C146.974 7.17057 145.354 6.66065 143.694 6.66705H131.534C129.412 6.66705 127.378 7.50991 125.877 9.0102C124.377 10.5105 123.534 12.5453 123.534 14.6671V49.3337C123.534 51.4554 124.377 53.4903 125.877 54.9906C127.378 56.4909 129.412 57.3337 131.534 57.3337H168.868C170.989 57.3337 173.024 56.4909 174.524 54.9906C176.025 53.4903 176.868 51.4554 176.868 49.3337V22.6671C176.868 20.5453 176.025 18.5105 174.524 17.0102C173.024 15.5099 170.989 14.6671 168.868 14.6671ZM171.534 49.3337C171.534 50.041 171.253 50.7192 170.753 51.2193C170.253 51.7194 169.575 52.0004 168.868 52.0004H131.534C130.827 52.0004 130.149 51.7194 129.649 51.2193C129.148 50.7192 128.868 50.041 128.868 49.3337V14.6671C128.868 13.9598 129.148 13.2815 129.649 12.7814C130.149 12.2813 130.827 12.0004 131.534 12.0004H143.694C144.253 11.9989 144.799 12.1732 145.253 12.4986C145.708 12.824 146.049 13.2841 146.228 13.8137L147.668 18.1871C147.846 18.7167 148.187 19.1767 148.642 19.5021C149.096 19.8275 149.642 20.0018 150.201 20.0004H168.868C169.575 20.0004 170.253 20.2813 170.753 20.7814C171.253 21.2815 171.534 21.9598 171.534 22.6671V49.3337Z" fill="#8B8B8B"/>
<path d="M27.8554 123.076C23.0554 123.076 19.3114 121.748 16.6234 119.092C13.9674 116.436 12.6394 112.644 12.6394 107.716V88.9H20.4154V107.428C20.4154 113.444 22.9114 116.452 27.9034 116.452C30.3354 116.452 32.1914 115.732 33.4714 114.292C34.7514 112.82 35.3914 110.532 35.3914 107.428V88.9H43.0714V107.716C43.0714 112.644 41.7274 116.436 39.0394 119.092C36.3834 121.748 32.6554 123.076 27.8554 123.076ZM65.4915 96.292C67.8915 96.292 70.0675 96.852 72.0195 97.972C74.0035 99.06 75.5555 100.612 76.6755 102.628C77.7955 104.612 78.3555 106.932 78.3555 109.588C78.3555 112.244 77.7955 114.58 76.6755 116.596C75.5555 118.58 74.0035 120.132 72.0195 121.252C70.0675 122.34 67.8915 122.884 65.4915 122.884C62.1955 122.884 59.6035 121.844 57.7155 119.764V131.812H50.2275V96.676H57.3795V99.652C59.2355 97.412 61.9395 96.292 65.4915 96.292ZM64.1955 116.74C66.1155 116.74 67.6835 116.1 68.8995 114.82C70.1475 113.508 70.7715 111.764 70.7715 109.588C70.7715 107.412 70.1475 105.684 68.8995 104.404C67.6835 103.092 66.1155 102.436 64.1955 102.436C62.2755 102.436 60.6915 103.092 59.4435 104.404C58.2275 105.684 57.6195 107.412 57.6195 109.588C57.6195 111.764 58.2275 113.508 59.4435 114.82C60.6915 116.1 62.2755 116.74 64.1955 116.74ZM83.3681 86.884H90.8561V122.5H83.3681V86.884ZM110.094 122.884C107.374 122.884 104.926 122.324 102.75 121.204C100.606 120.052 98.9256 118.468 97.7096 116.452C96.4936 114.436 95.8856 112.148 95.8856 109.588C95.8856 107.028 96.4936 104.74 97.7096 102.724C98.9256 100.708 100.606 99.14 102.75 98.02C104.926 96.868 107.374 96.292 110.094 96.292C112.814 96.292 115.246 96.868 117.39 98.02C119.534 99.14 121.214 100.708 122.43 102.724C123.646 104.74 124.254 107.028 124.254 109.588C124.254 112.148 123.646 114.436 122.43 116.452C121.214 118.468 119.534 120.052 117.39 121.204C115.246 122.324 112.814 122.884 110.094 122.884ZM110.094 116.74C112.014 116.74 113.582 116.1 114.798 114.82C116.046 113.508 116.67 111.764 116.67 109.588C116.67 107.412 116.046 105.684 114.798 104.404C113.582 103.092 112.014 102.436 110.094 102.436C108.174 102.436 106.59 103.092 105.342 104.404C104.094 105.684 103.47 107.412 103.47 109.588C103.47 111.764 104.094 113.508 105.342 114.82C106.59 116.1 108.174 116.74 110.094 116.74ZM139.253 96.292C143.253 96.292 146.325 97.252 148.469 99.172C150.613 101.06 151.685 103.924 151.685 107.764V122.5H144.677V119.284C143.269 121.684 140.645 122.884 136.805 122.884C134.821 122.884 133.093 122.548 131.621 121.876C130.181 121.204 129.077 120.276 128.309 119.092C127.541 117.908 127.157 116.564 127.157 115.06C127.157 112.66 128.053 110.772 129.845 109.396C131.669 108.02 134.469 107.332 138.245 107.332H144.197C144.197 105.7 143.701 104.452 142.709 103.588C141.717 102.692 140.229 102.244 138.245 102.244C136.869 102.244 135.509 102.468 134.165 102.916C132.853 103.332 131.733 103.908 130.805 104.644L128.117 99.412C129.525 98.42 131.205 97.652 133.157 97.108C135.141 96.564 137.173 96.292 139.253 96.292ZM138.677 117.844C139.957 117.844 141.093 117.556 142.085 116.98C143.077 116.372 143.781 115.492 144.197 114.34V111.7H139.061C135.989 111.7 134.453 112.708 134.453 114.724C134.453 115.684 134.821 116.452 135.557 117.028C136.325 117.572 137.365 117.844 138.677 117.844ZM185.047 86.884V122.5H177.895V119.524C176.039 121.764 173.351 122.884 169.831 122.884C167.399 122.884 165.191 122.34 163.207 121.252C161.255 120.164 159.719 118.612 158.599 116.596C157.479 114.58 156.919 112.244 156.919 109.588C156.919 106.932 157.479 104.596 158.599 102.58C159.719 100.564 161.255 99.012 163.207 97.924C165.191 96.836 167.399 96.292 169.831 96.292C173.127 96.292 175.703 97.332 177.559 99.412V86.884H185.047ZM171.127 116.74C173.015 116.74 174.583 116.1 175.831 114.82C177.079 113.508 177.703 111.764 177.703 109.588C177.703 107.412 177.079 105.684 175.831 104.404C174.583 103.092 173.015 102.436 171.127 102.436C169.207 102.436 167.623 103.092 166.375 104.404C165.127 105.684 164.503 107.412 164.503 109.588C164.503 111.764 165.127 113.508 166.375 114.82C167.623 116.1 169.207 116.74 171.127 116.74ZM213.875 95.14V104.02H229.427V110.26H213.875V122.5H206.099V88.9H231.491V95.14H213.875ZM235.759 96.676H243.247V122.5H235.759V96.676ZM239.503 93.076C238.127 93.076 237.007 92.676 236.143 91.876C235.279 91.076 234.847 90.084 234.847 88.9C234.847 87.716 235.279 86.724 236.143 85.924C237.007 85.124 238.127 84.724 239.503 84.724C240.879 84.724 241.999 85.108 242.863 85.876C243.727 86.644 244.159 87.604 244.159 88.756C244.159 90.004 243.727 91.044 242.863 91.876C241.999 92.676 240.879 93.076 239.503 93.076ZM250.196 86.884H257.684V122.5H250.196V86.884ZM289.93 109.684C289.93 109.78 289.882 110.452 289.786 111.7H270.25C270.602 113.3 271.434 114.564 272.746 115.492C274.058 116.42 275.69 116.884 277.642 116.884C278.986 116.884 280.17 116.692 281.194 116.308C282.25 115.892 283.226 115.252 284.122 114.388L288.106 118.708C285.674 121.492 282.122 122.884 277.45 122.884C274.538 122.884 271.962 122.324 269.722 121.204C267.482 120.052 265.754 118.468 264.538 116.452C263.322 114.436 262.714 112.148 262.714 109.588C262.714 107.06 263.306 104.788 264.49 102.772C265.706 100.724 267.354 99.14 269.434 98.02C271.546 96.868 273.898 96.292 276.49 96.292C279.018 96.292 281.306 96.836 283.354 97.924C285.402 99.012 287.002 100.58 288.154 102.628C289.338 104.644 289.93 106.996 289.93 109.684ZM276.538 101.956C274.842 101.956 273.418 102.436 272.266 103.396C271.114 104.356 270.41 105.668 270.154 107.332H282.874C282.618 105.7 281.914 104.404 280.762 103.444C279.61 102.452 278.202 101.956 276.538 101.956Z" fill="#828282"/>
</svg>
