<svg width="16" height="14" viewBox="0 0 15.8 14" fill="none" xmlns="http://www.w3.org/2000/svg">
<path d="M7.60386 1.37917L7.89936 1.59896L8.1969 1.38194C9.05771 0.75411 10.1147 0.454816 11.1768 0.538124C12.2389 0.621424 13.2362 1.08176 13.9886 1.836C14.8168 2.66947 15.2816 3.79674 15.2816 4.97173C15.2816 6.14675 14.8167 7.27405 13.9885 8.10753C13.9884 8.10765 13.9883 8.10776 13.9882 8.10788L9.0892 13.0147C8.77243 13.3257 8.34623 13.5 7.90227 13.5C7.4583 13.5 7.0321 13.3257 6.71534 13.0147L1.81558 8.10708L1.81406 8.10556C1.0157 7.31277 0.547379 6.24694 0.503403 5.12268C0.459427 3.99843 0.843061 2.89927 1.57705 2.04654C2.31104 1.19382 3.34087 0.650873 4.45915 0.527041C5.57742 0.403209 6.70109 0.707689 7.60386 1.37917Z" fill="#8B8B8B" stroke="black"/>
</svg>
